<?xml version="1.0" encoding="utf-8"?>
<!-- Generator: Adobe Illustrator 15.0.0, SVG Export Plug-In . SVG Version: 6.00 Build 0)  -->
<!DOCTYPE svg PUBLIC "-//W3C//DTD SVG 1.1//EN" "http://www.w3.org/Graphics/SVG/1.1/DTD/svg11.dtd">
<svg version="1.1" id="Layer_1" xmlns="http://www.w3.org/2000/svg" xmlns:xlink="http://www.w3.org/1999/xlink" x="0px" y="0px"
	 width="100px" height="100px" viewBox="0 0 100 100" enable-background="new 0 0 100 100" xml:space="preserve">
<g id="Captions">
</g>
<g id="Layer_7" display="none">
</g>
<g id="Your_Icon" display="none">
	<path display="inline" d="M51.298,21.117c7.345,0,13.325,5.978,13.325,13.327c0,7.348-5.98,13.326-13.325,13.326
		c-7.349,0-13.33-5.978-13.33-13.326C37.968,27.095,43.949,21.117,51.298,21.117 M51.298,7.791
		c-14.72,0-26.655,11.933-26.655,26.653s11.935,26.653,26.655,26.653c14.721,0,26.651-11.933,26.651-26.653
		S66.019,7.791,51.298,7.791L51.298,7.791z"/>
</g>
<g id="Layer_5" display="none">
	<path display="inline" d="M51.639,13.714c-14.717,0-26.654,8.182-26.654,18.277c0,4.796,2.716,9.142,7.12,12.406l-2.983,10.779
		l15.215-5.617c2.32,0.456,4.769,0.717,7.302,0.717c14.721,0,26.652-8.185,26.652-18.285C78.291,21.896,66.359,13.714,51.639,13.714
		z"/>
</g>
<g id="Layer_4" display="none">
	
		<rect x="25.525" y="21.213" transform="matrix(0.7071 0.7071 -0.7071 0.7071 37.2555 -25.3032)" display="inline" width="47.292" height="22.212"/>
	<polygon display="inline" points="62.224,61.079 62.291,61.145 77.949,61.096 77.996,45.438 77.932,45.375 	"/>
</g>
<g>
	<path d="M17.701,46.592h4.891c0.246,0,0.447-0.199,0.471-0.443c0.283-2.85,2.583-5.105,5.453-5.319
		c0.245-0.018,0.643-0.016,0.889-0.016h12.741c0.246,0,0.645-0.001,0.89,0.016c2.87,0.213,5.17,2.469,5.454,5.319
		c0.024,0.244,0.225,0.443,0.47,0.443h2.078c0.246,0,0.447-0.199,0.472-0.443c0.282-2.85,2.583-5.105,5.453-5.319
		c0.243-0.018,0.644-0.016,0.889-0.016h12.741c0.246,0,0.645-0.001,0.889,0.016c2.87,0.213,5.17,2.469,5.454,5.319
		c0.023,0.244,0.226,0.443,0.472,0.443h4.89c0.246,0,0.445-0.198,0.445-0.444V33.05c0-0.247-0.177-0.533-0.397-0.64
		c-9.643-4.712-20.463-7.382-31.9-7.448c-0.246-0.001-0.643-0.001-0.889,0c-11.438,0.066-22.258,2.738-31.899,7.448
		c-0.221,0.106-0.398,0.393-0.398,0.64v13.097C17.256,46.394,17.454,46.592,17.701,46.592z"/>
	<path d="M87.006,51.928c-0.193-1.281-1.206-2.295-2.487-2.488c-0.243-0.035-0.642-0.031-0.889-0.031H16.367
		c-0.246,0-0.645-0.004-0.888,0.031c-1.281,0.193-2.294,1.206-2.487,2.488c-0.036,0.242-0.033,0.641-0.033,0.887v10.371
		c0,0.246,0.199,0.445,0.445,0.445h73.189c0.247,0,0.445-0.199,0.445-0.445V52.814C87.038,52.568,87.042,52.17,87.006,51.928z"/>
	<path d="M86.594,66.445h-73.19c-0.246,0-0.445,0.197-0.445,0.443v2.074c0,0.246,0.199,0.445,0.445,0.445h4.89
		c0.246,0,0.444,0.199,0.444,0.445v4.74c0,0.246,0.198,0.445,0.444,0.445h4.742c0.246,0,0.444-0.199,0.444-0.445v-4.74
		c0-0.246,0.198-0.445,0.444-0.445h50.374c0.246,0,0.444,0.199,0.444,0.445v4.74c0,0.246,0.199,0.445,0.444,0.445h4.741
		c0.247,0,0.444-0.199,0.444-0.445v-4.74c0-0.246,0.199-0.445,0.445-0.445h4.89c0.247,0,0.444-0.199,0.444-0.445v-2.074
		C87.038,66.643,86.841,66.445,86.594,66.445z"/>
</g>
</svg>
