<?xml version="1.0" encoding="utf-8"?>
<!-- Generator: Adobe Illustrator 15.0.0, SVG Export Plug-In . SVG Version: 6.00 Build 0)  -->
<!DOCTYPE svg PUBLIC "-//W3C//DTD SVG 1.1//EN" "http://www.w3.org/Graphics/SVG/1.1/DTD/svg11.dtd">
<svg version="1.1" id="Calque_1" xmlns="http://www.w3.org/2000/svg" xmlns:xlink="http://www.w3.org/1999/xlink" x="0px" y="0px"
	 width="100px" height="100px" viewBox="0 0 100 100" enable-background="new 0 0 100 100" xml:space="preserve">
<g id="Captions">
</g>
<g id="Your_Icon">
	<g>
		<path d="M82.281,70.633l-27.332-2.922c3.567-2.87,7.969-4.429,12.605-4.423c5.371,0.007,10.42,2.107,14.219,5.915
			c0.175,0.175,0.404,0.264,0.633,0.264c0.23,0,0.459-0.088,0.635-0.262c0.35-0.35,0.352-0.918,0.002-1.268
			c-4.137-4.147-9.637-6.435-15.486-6.44c-5.848-0.008-11.354,2.268-15.5,6.403c-0.002,0.002-0.003,0.004-0.004,0.005
			c-0.04,0.04-0.076,0.084-0.107,0.132c-0.016,0.022-0.027,0.048-0.04,0.072c-0.015,0.027-0.031,0.053-0.043,0.082
			c-0.013,0.03-0.021,0.062-0.028,0.094c-0.008,0.023-0.018,0.048-0.023,0.072c-0.012,0.059-0.018,0.117-0.018,0.176l-0.001,1.214
			c-0.511,0.401-1.136,0.62-1.794,0.62c-0.658-0.001-1.283-0.222-1.792-0.625l0.001-1.213c0-0.06-0.006-0.117-0.018-0.176
			c-0.005-0.026-0.015-0.051-0.022-0.074c-0.009-0.031-0.017-0.063-0.029-0.094c-0.012-0.029-0.028-0.055-0.043-0.082
			c-0.014-0.024-0.024-0.049-0.04-0.072c-0.031-0.047-0.067-0.091-0.106-0.131c-0.001-0.002-0.003-0.004-0.004-0.006
			c-4.137-4.146-9.637-6.434-15.485-6.44c-5.849-0.007-11.354,2.268-15.501,6.403c-0.35,0.351-0.351,0.918-0.001,1.268
			c0.35,0.352,0.917,0.352,1.268,0.002c3.808-3.798,8.862-5.887,14.232-5.88c4.638,0.006,9.035,1.574,12.595,4.453l-27.339,2.854
			c-0.502,0.053-0.868,0.502-0.815,1.004c0.049,0.47,0.446,0.819,0.907,0.82c0.032,0,28.607-2.982,28.607-2.982l-0.001,0.746
			c0,0.059,0.006,0.117,0.018,0.176c0.005,0.025,0.015,0.049,0.022,0.074c0.009,0.031,0.017,0.062,0.029,0.093
			c0.013,0.03,0.029,0.057,0.044,0.085c0.013,0.022,0.023,0.047,0.038,0.069c0.032,0.05,0.07,0.096,0.112,0.138
			c0.887,0.889,2.066,1.379,3.322,1.38c1.254,0.001,2.436-0.486,3.324-1.373c0.002-0.001,0.004-0.004,0.005-0.005
			c0.04-0.041,0.075-0.084,0.107-0.131c0.016-0.023,0.026-0.049,0.04-0.073c0.014-0.027,0.03-0.054,0.043-0.081
			c0.012-0.031,0.02-0.062,0.029-0.095c0.008-0.024,0.017-0.048,0.021-0.073c0.012-0.058,0.018-0.117,0.018-0.176v-0.747
			c0,0,28.568,3.053,28.601,3.053c0.462,0.001,0.859-0.349,0.909-0.817C83.147,71.137,82.783,70.687,82.281,70.633z"/>
	</g>
	<g>
		<path d="M46.484,54.573l-5.765,3.315c-0.196,0.112-0.413,0.167-0.627,0.167c-0.326,0-0.648-0.125-0.89-0.369
			c-0.402-0.402-0.484-1.023-0.201-1.518l3.315-5.765c0.074-0.3,0.225-0.567,0.443-0.786l4-4c-0.476-0.155-0.967-0.27-1.473-0.335
			c-0.352-0.045-0.709-0.069-1.061-0.069c-1.821,0-3.551,0.593-5.004,1.715C39.168,46.97,19.87,62.476,19.87,62.476
			c-0.339,0.271-0.393,0.766-0.121,1.105c0.155,0.194,0.383,0.295,0.614,0.295c0.173,0,0.347-0.057,0.492-0.174l0.455-0.365
			c4.239-3.139,9.43-4.499,14.67-3.824c5.327,0.686,10.074,3.391,13.389,7.618V52.032l-2.097,2.098
			C47.052,54.349,46.785,54.499,46.484,54.573z"/>
		<path d="M68.41,28.479c-0.377-0.377-0.871-0.566-1.366-0.566s-0.988,0.189-1.365,0.566l-0.306,0.305l-1.24-1.24l-6.504,6.504
			c-0.198,0.198-0.198,0.52,0,0.718c0.1,0.1,0.23,0.149,0.359,0.149c0.131,0,0.26-0.049,0.359-0.149l5.785-5.786l0.521,0.521
			L48.015,46.143l0,0l-4.365,4.365c-0.085,0.085-0.125,0.197-0.128,0.325l-3.43,5.964l5.964-3.43
			c0.128-0.004,0.24-0.043,0.325-0.128L68.41,31.21C69.164,30.456,69.164,29.234,68.41,28.479z"/>
		<path d="M80.309,62.476c0,0-19.256-15.476-19.312-15.52c-1.406-1.091-3.074-1.68-4.833-1.719l-5.536,5.536v16.412
			c3.327-4.251,8.1-6.964,13.451-7.64c5.381-0.679,10.707,0.78,14.999,4.109c0.122,0.096,0.267,0.142,0.411,0.145
			c0.104,0.049,0.216,0.074,0.328,0.074c0.229,0,0.459-0.101,0.613-0.295C80.702,63.241,80.647,62.746,80.309,62.476z"/>
	</g>
</g>
</svg>
