<svg xmlns:dc="http://purl.org/dc/elements/1.1/" xmlns:cc="http://creativecommons.org/ns#" xmlns:rdf="http://www.w3.org/1999/02/22-rdf-syntax-ns#" xmlns:svg="http://www.w3.org/2000/svg" xmlns="http://www.w3.org/2000/svg" xmlns:sodipodi="http://sodipodi.sourceforge.net/DTD/sodipodi-0.dtd" xmlns:inkscape="http://www.inkscape.org/namespaces/inkscape" width="100" height="100" viewBox="0 0 80 80" version="1.1" id="svg2" inkscape:version="0.48.2 r9819" sodipodi:docname="blank.svg">
  <metadata id="metadata10">
    <rdf:RDF>
      <cc:Work rdf:about="">
        <dc:format>image/svg+xml</dc:format>
        <dc:type rdf:resource="http://purl.org/dc/dcmitype/StillImage"/>
        <dc:title/>
      </cc:Work>
    </rdf:RDF>
  </metadata>
  <defs id="defs8">
    <inkscape:path-effect is_visible="true" id="path-effect5043" effect="spiro"/>
    <inkscape:path-effect is_visible="true" id="path-effect5065" effect="spiro"/>
  </defs>
  <sodipodi:namedview pagecolor="#ffffff" bordercolor="#666666" borderopacity="1" objecttolerance="10" gridtolerance="10" guidetolerance="10" inkscape:pageopacity="0" inkscape:pageshadow="2" inkscape:window-width="1366" inkscape:window-height="706" id="namedview6" showgrid="true" inkscape:zoom="4.6782639" inkscape:cx="12.249944" inkscape:cy="32.66701" inkscape:window-x="-8" inkscape:window-y="-8" inkscape:window-maximized="1" inkscape:current-layer="svg2" inkscape:snap-grids="false">
    <inkscape:grid type="xygrid" id="grid3807"/>
  </sodipodi:namedview>
  <g id="g3044" transform="matrix(0.26124625,0,0,0.26124625,1.2328553,18.824656)">
    <path id="path3020" d="M 0,0 0.6,0 C 38.2,22.4 76.2,44.1 113.5,67 105.3,66.5 96,68.6 89,63.1 59.5,45.3 29.4,28.5 0,10.5 L 0,0 z" inkscape:connector-curvature="0" style="fill:#000000;stroke:#000000;stroke-width:0.09375"/>
    <path id="path3022" d="M 33.3,0 130,0 c 0,19.8 0.1,39.6 -0.2,59.4 C 97.5,39.7 65.3,20 33.3,0 z" inkscape:connector-curvature="0" style="fill:#000000;stroke:#000000;stroke-width:0.09375"/>
    <path style="fill:#000000;stroke:#000000;stroke-width:0.0306148" d="M 46.28125 23.53125 C 46.31391 31.597228 46.28125 39.621522 46.28125 47.6875 L 1.53125 47.6875 L 1.53125 57.5 L 46.28125 57.5 L 46.28125 80.46875 L 46.28125 81.65625 L 54.8125 81.65625 C 54.741928 73.688376 54.78125 65.527466 54.78125 57.5 L 99.5 57.5 L 99.5 47.6875 L 54.78125 47.6875 C 54.78125 39.621522 54.74859 31.597228 54.78125 23.53125 L 46.28125 23.53125 z M 62.46875 59.40625 C 74.486078 66.949735 99 81.28125 99 81.28125 L 99.5 81.65625 L 99.5 77.90625 C 89.67061 71.962898 79.674546 66.253041 69.8125 60.375 C 67.657218 58.938146 64.885278 59.667496 62.46875 59.40625 z M 43.875 59.4375 C 41.099259 59.731402 37.885278 58.956744 35.46875 60.6875 C 24.16985 67.643181 12.895462 74.674942 1.53125 81.5 L 1.53125 81.65625 L 8.40625 81.65625 L 8.84375 81.40625 C 9.0001524 81.302231 9.1557866 81.197333 9.3125 81.09375 C 15.994414 76.677204 22.954371 72.650598 29.71875 68.375 C 34.421183 65.403324 39.335846 62.703078 43.875 59.4375 z M 43.9375 62.25 C 34.711672 67.760729 25.595632 73.480209 16.4375 79.125 C 15.935615 79.434347 15.439702 79.753714 14.9375 80.0625 L 12.40625 81.65625 L 44.03125 81.65625 C 43.987485 74.990154 43.995261 68.004578 43.9375 62.25 z M 57.40625 62.28125 C 57.37787 67.785625 57.37521 73.328121 57.375 78.84375 L 57.375 81.65625 L 88.96875 81.65625 L 86.40625 80.0625 C 86.34406 80.02783 86.280489 80.00516 86.21875 79.96875 C 76.61795 74.058054 67.072361 68.061323 57.40625 62.28125 z " transform="matrix(3.0622449,0,0,3.0622449,-4.7191311,-72.057134)" id="path3024"/>
    <path id="path3026" d="m 171,0 95.7,0 C 235,20 202.9,39.4 171,59.1 171,39.4 171,19.7 171,0 z" inkscape:connector-curvature="0" style="fill:#000000;stroke:#000000;stroke-width:0.09375"/>
    <path id="path3028" d="m 279.6,0 20.4,0 0,0.4 c -28.1,17 -56,34.4 -84.1,51.5 -7.6,4.7 -14.9,10 -23,13.9 -7,1.4 -14.3,0.9 -21.5,1.2 35.8,-22.8 72.3,-44.5 108.2,-67 z" inkscape:connector-curvature="0" style="fill:#000000;stroke:#000000;stroke-width:0.09375"/>
    <path id="path3030" d="M 0,17.2 C 27.9,34.1 56.3,50 84.2,66.9 56.2,67.1 28.1,66.9 0,67 L 0,17.2 z" inkscape:connector-curvature="0" style="fill:#000000;stroke:#000000;stroke-width:0.09375"/>
    <path id="path3032" d="M 216.7,66.8 C 244.3,50 272.6,34.5 300,17.5 l 0,49.5 c -27.8,-0.1 -55.5,0.2 -83.3,-0.2 z" inkscape:connector-curvature="0" style="fill:#000000;stroke:#000000;stroke-width:0.09375"/>
    <path id="path3034" d="m 0,110 c 28.1,0.1 56.3,-0.3 84.4,0.3 -27.8,17.2 -56.6,33 -84.4,50.2 L 0,110 z" inkscape:connector-curvature="0" style="fill:#000000;stroke:#000000;stroke-width:0.09375"/>
    <path id="path3036" d="m 216.6,110.3 c 27.8,-0.6 55.6,-0.2 83.4,-0.3 l 0,49.8 c -27.7,-16.6 -56,-32.4 -83.4,-49.5 z" inkscape:connector-curvature="0" style="fill:#000000;stroke:#000000;stroke-width:0.09375"/>
  </g>
</svg>