<svg xmlns="http://www.w3.org/2000/svg" xmlns:xlink="http://www.w3.org/1999/xlink" version="1.1" id="Layer_1" x="0px" y="0px" viewBox="0 0 48 48" enable-background="new 0 0 48 48" xml:space="preserve" height="100px" width="100px">
<g>
	<g>
		<g>
			<path fill="#000000" d="M2.3,10.6c12.3-0.6,24.6-0.9,37-0.7c1.3,0,2.6,0,3.9,0.1c3.4,0.1,3,5.9,3,7.9c0.1,3.1,0.1,6.2,0.1,9.3     c0,2.7,1,18.3-2.8,18.4C31.1,45.8,18.8,46,6.5,46.2c-4.8,0.1-4-3.6-4.1-7.2c-0.1-3.2-0.1-6.3-0.2-9.5c-0.1-6.1-1-13.4,0.6-19.3     c0.2-0.8-1-1.1-1.2-0.3C-0.2,16.6,0.9,24.5,1,31.4c0,1.9-0.9,15.5,0.9,15.9c2.5,0.7,5.8,0.1,8.4,0c4.5-0.1,9.1-0.1,13.6-0.2     s9.1-0.1,13.6-0.2c2.2,0,6.6,0.8,8.4-0.3c0.6-0.4,0.6-2.5,0.6-2.7c0.5-4.3,0.7-8.7,0.8-13c0.1-4.4,0-8.7,0-13.1     c0-2.8,0.2-6.1-1-8.6c-0.4-0.8-3-0.5-3.2-0.5c-4.5-0.1-9.1-0.1-13.6-0.1c-9.1,0-18.2,0.3-27.2,0.8C1.5,9.4,1.5,10.7,2.3,10.6     L2.3,10.6z"/>
		</g>
	</g>
	<g>
		<g>
			<path fill="#000000" d="M5.1,14.8c0,1.5,0,3,0,4.5c0,0.7-0.2,2.2,0.6,2.6c0.9,0.5,1.7,0.2,2.7-0.1c1.2-0.4,2.7-0.6,3.6-1.6     c0.6-0.7,0.4-1.9,0.4-2.7c-0.1-0.9,0-1.8,0.2-2.6c0.1-0.3,0.3-0.8,0.1-1.1c-0.6-0.9-1.8-0.6-2.8-0.5c-1.5,0.2-3,0.4-4.6,0.7     c-0.8,0.1-0.5,1.3,0.3,1.2c1.6-0.2,3.2-0.5,4.8-0.7c1.2-0.1,0.8,0.3,0.7,1.2c-0.1,0.8,0,1.6,0,2.4c0.1,1.4-0.9,1.8-1.9,2.1     c-0.9,0.3-2.9,1.2-2.9-0.4c0-1.7,0-3.4,0-5.1C6.4,14,5.1,14,5.1,14.8L5.1,14.8z"/>
		</g>
	</g>
	<g>
		<g>
			<path fill="#000000" d="M15.5,14.6c-0.1,1.5-0.2,3-0.2,4.4c0,0.6,0.1,2.2,0.8,2.5c1.1,0.5,2.6,0.2,3.8,0.2c0.9,0,2.2,0.2,2.9-0.5     c0.7-0.7,0.5-2.3,0.6-3.2c0-1.1,0.3-2.7-0.2-3.7c-0.4-0.9-1.2-0.9-2.1-0.9c-1.7,0-3.4,0-5,0c-0.8,0-0.8,1.3,0,1.3     c1.9,0,3.7,0,5.6,0c0.8,0,0.8,5.7-0.1,5.7c-0.9,0.1-1.8,0.1-2.8,0.1c-1.1,0-2,0.4-2.2-1c-0.2-1.6,0.1-3.3,0.2-4.9     C16.8,13.7,15.5,13.7,15.5,14.6L15.5,14.6z"/>
		</g>
	</g>
	<g>
		<g>
			<path fill="#000000" d="M26.1,14.4c-0.2,1.2,0.3,2.2,0.4,3.4c0.1,0.9-1.1,2.2-0.2,3c0.7,0.7,1.7,0.5,2.7,0.6     c1.3,0,2.6,0.2,3.8-0.4c0.8-0.4,1-1.2,1-2c0-1.4,0.2-3-0.2-4.3c-0.2-0.8-1-1.2-1.7-1.2c-1.7,0-3.3,0-5,0.1c-0.8,0-0.8,1.3,0,1.3     c1,0,5.5-0.6,5.6,0.8c0.1,0.8,0,1.6,0,2.4c0,0.3,0,0.7,0,1c0,1.2-1,1.2-1.8,1.2c-0.7,0-1.5,0-2.3-0.1c-0.3,0-0.6,0-0.9,0     c-0.8,0-0.2-1-0.1-1.3c0.6-1.4-0.5-2.7-0.2-4.1C27.4,13.9,26.2,13.6,26.1,14.4L26.1,14.4z"/>
		</g>
	</g>
	<g>
		<g>
			<path fill="#000000" d="M35,14.4c0.1,1.6,0.2,3.2,0.3,4.8c0.1,1.2,0.7,1.8,1.7,2.3c0.4,0.2,0.9,0.3,1.3,0.3     c0.8-0.2,1.4-0.3,2.3-0.1c0.9,0.3,2,0,2.4-0.9c0.5-1,0.4-2,0.2-3.1c-0.2-1-0.2-2.1-0.2-3.1c0-0.3-0.1-0.7-0.4-0.8     c-1.2-0.7-3.3-0.5-4.7-0.5c-1,0-2.3-0.3-2.9,0.6c-0.5,0.7,0.6,1.3,1.1,0.6c0.2-0.2,2.1,0,2.4,0c1.1,0,2.6,0,3.6,0.4     c-0.1-0.1-0.3-0.3-0.4-0.4c0.3,1.1,0.2,2.4,0.3,3.6c0.1,0.6,0.6,2.8-1.1,2.4c-0.4-0.1-0.9-0.4-1.4-0.3c-1.4,0.2-3,0.6-3.1-1.5     c-0.1-1.4-0.2-2.8-0.2-4.2C36.2,13.6,34.9,13.6,35,14.4L35,14.4z"/>
		</g>
	</g>
	<g>
		<g>
			<path fill="#000000" d="M5,25.5c-0.1,1.4,0,2.8,0.1,4.2c0.1,1.1,0.1,2.2,0.8,3c0.5,0.6,1.7,0.2,2.3,0.1c0.7-0.2,1.5-0.3,2.2-0.4     c0.6-0.1,1.5,0,2.1-0.4c0.6-0.4,0.5-1.4,0.5-2c0-1.3,0.2-3-0.2-4.3c-0.2-0.9-0.8-1.2-1.7-1.2c-1.7-0.1-3.4,0.1-5.1,0.3     c-0.8,0.1-0.8,1.3,0,1.3C7,25.9,8,25.9,8.9,25.8c0.7,0,2.7-0.5,2.8,0.6c0.1,0.9,0.1,1.7,0.1,2.6c0,0.3,0,0.7,0,1     c0,0.2,0,0.3,0,0.5c0.2,0.5,0,0.6-0.4,0.4C10.6,31,9.8,31.2,9,31.3c-0.4,0.1-0.7,0.1-1.1,0.2c-0.9,0.2-1.3,0.1-1.4-0.9     c-0.2-1.7-0.4-3.5-0.3-5.2C6.3,24.7,5,24.7,5,25.5L5,25.5z"/>
		</g>
	</g>
	<g>
		<g>
			<path fill="#000000" d="M15,25.5c0,1.7,0,3.3,0.3,4.9c0.1,0.9,0,2.1,1,2.6c0.8,0.4,2.6-0.3,3.4-0.5c0.5-0.1,0.9-0.2,1.4-0.5     c0.4-0.2,1,0,1.4-0.3c0.8-0.8,1-2,1-3.1c0-1,0-2.8-0.6-3.7c-0.7-1-1.7-0.7-2.8-0.6c-1.5,0.1-3,0.4-4.4,0.8     c-0.8,0.2-0.4,1.4,0.3,1.2c0.9-0.2,5.5-1.6,5.9-0.4c0.5,1.3,0.9,4.6-0.8,4.9c-0.7,0.1-1.4,0.5-2.1,0.7c-0.3,0.1-0.7,0.1-1,0.2     c-0.7,0.1-1,0.6-1.1-0.3c-0.3-1.9-0.4-3.9-0.4-5.8C16.3,24.6,15,24.6,15,25.5L15,25.5z"/>
		</g>
	</g>
	<g>
		<g>
			<path fill="#000000" d="M25.4,25.4c0,1.2,0,2.3,0,3.5c0,0.8-0.2,2.1,0.1,2.9c0.6,1.6,2.3,1.1,3.7,0.9c1.1-0.1,3.5,0,3.8-1.4     c0.2-0.8,0.1-1.8,0.1-2.7c0-1-0.9-2.5-0.2-3.3c0.4-0.4,0.1-1-0.4-1.1c-2.1-0.2-4.1,0.8-6.2,0.8c-0.8,0-0.8,1.3,0,1.3     c2.1-0.1,4.1-1.1,6.2-0.8c-0.1-0.4-0.3-0.7-0.4-1.1c-0.5,0.6-0.7,1.2-0.6,1.9c0.1,0.6,1.1,4.5,0.2,4.7c-0.7,0.2-1.5,0.3-2.2,0.4     c-1,0.1-2.7,0.7-2.7-0.7c0-1.7,0-3.5,0-5.2C26.7,24.6,25.4,24.6,25.4,25.4L25.4,25.4z"/>
		</g>
	</g>
	<g>
		<g>
			<path fill="#000000" d="M35.1,25.9c0,1.5,0,3,0,4.5c0.1,0.9,0.6,1.4,1.4,1.7c1.1,0.4,2.8,0,4-0.1c0.9,0,1.4-0.1,1.7-1     c0.4-1.3,0.5-2.9,0.5-4.3c0-0.5,0.2-2.2-0.5-2.5C41.3,23.7,40,24,39,24c-1.3,0-2.6,0.1-3.8,0.6c-0.7,0.3-0.1,1.4,0.6,1.1     c1.4-0.6,3.2-0.5,4.7-0.5c0.3,0,0.7,0,1,0c0,0-0.1-0.1-0.1-0.1c0,0.3,0,0.7,0,1c0,0.9,0,1.7-0.1,2.6c-0.1,0.5-0.1,0.9-0.2,1.4     c-0.1,0.7-0.4,0.6-1.1,0.6c-0.9,0-1.7,0.1-2.6,0.1c-1.7,0.1-1.2-3.9-1.1-5C36.4,25.1,35.1,25.1,35.1,25.9L35.1,25.9z"/>
		</g>
	</g>
	<g>
		<g>
			<path fill="#000000" d="M11.6,46.3c0.2-1.8-0.4-9,2.6-9.1c2.9-0.1,5.7-0.2,8.6-0.3c3.1-0.1,6.2-0.1,9.3,0c3.6,0.2,4.1,0.3,4.6,4     c0.2,1.6,0.3,3.3,0.4,4.9c0,0.8,1.3,0.8,1.3,0c-0.1-2.1,0.3-7.7-1.3-9.4c-2.1-2.1-9.6-0.9-12.3-0.9c-2.9,0.1-5.8,0.2-8.7,0.3     c-1.2,0-3.1-0.3-4.3,0.4c-1.7,1-1.1,8.2-1.3,10C10.3,47.1,11.5,47.1,11.6,46.3L11.6,46.3z"/>
		</g>
	</g>
	<g>
		<g>
			<path fill="#000000" d="M25,46.3c0.5-3.2,0.6-6.4,0.4-9.7c-0.1-0.8-1.3-0.8-1.3,0c0.2,3.1,0.1,6.2-0.4,9.4     C23.7,46.7,24.9,47.1,25,46.3L25,46.3z"/>
		</g>
	</g>
	<g>
		<g>
			<path fill="#000000" d="M8.3,9.5c0-4.1-0.4-7.4,5.1-7.7c3-0.1,6.1,0.6,9,0.7c3.2,0.1,6.5-0.1,9.7-0.1c1.2,0,5.9-0.8,6.1,1.5     c0.1,1.6,0.3,3.1,0.4,4.7c0.1,0.8,1.3,0.8,1.3,0c-0.1-1.1,0.3-7.1-1.2-7.4c-5-1.1-11.2,0.1-16.3,0.1c-4.4,0-10.3-2-14.5,0     C5.8,2.3,7.1,7.5,7.1,9.5C7.1,10.3,8.3,10.3,8.3,9.5L8.3,9.5z"/>
		</g>
	</g>
</g>
</svg>