<?xml version="1.0" encoding="utf-8"?>
<!-- Generator: Adobe Illustrator 15.0.0, SVG Export Plug-In . SVG Version: 6.00 Build 0)  -->
<!DOCTYPE svg PUBLIC "-//W3C//DTD SVG 1.1//EN" "http://www.w3.org/Graphics/SVG/1.1/DTD/svg11.dtd">
<svg version="1.1" id="Layer_1" xmlns="http://www.w3.org/2000/svg" xmlns:xlink="http://www.w3.org/1999/xlink" x="0px" y="0px"
	 width="100px" height="100px" viewBox="0 0 100 100" enable-background="new 0 0 100 100" xml:space="preserve">
<g>
	<path fill="#1E1B1C" d="M73.775,34.731l-15.49-4.046c-0.125-0.066-0.265-0.097-0.407-0.089c-0.143-0.009-0.284,0.022-0.411,0.087
		l-15.294,3.996l-15.547-4.062c-0.25-0.065-0.516-0.004-0.712,0.163c-0.197,0.167-0.299,0.42-0.275,0.678l3.165,33.12
		c0.03,0.322,0.255,0.594,0.566,0.684l14.151,4.111l0,0l0.013,0.002c0.072,0.021,0.146,0.033,0.221,0.033
		c0.042,0,0.085-0.004,0.127-0.012c0.016-0.002,0.032-0.008,0.048-0.012c0.024-0.004,0.047-0.01,0.07-0.016l12.305-4.023
		l13.562,4.029c0.074,0.021,0.15,0.031,0.226,0.031c0.155,0,0.309-0.045,0.439-0.133c0.196-0.131,0.323-0.342,0.348-0.574
		l3.48-33.12C74.402,35.19,74.154,34.83,73.775,34.731z M43.324,43.011L42.994,36.1l13.992-3.655l-1.329,27.813
		c-0.167-0.092-0.381-0.076-0.534,0.055c-0.681,0.578-1.349,1.064-1.983,1.445c-0.225,0.135-0.299,0.426-0.164,0.65
		c0.09,0.148,0.246,0.23,0.408,0.23c0.083,0,0.167-0.021,0.244-0.066c0.641-0.385,1.31-0.869,1.988-1.438l-0.135,2.816l-10.984,3.59
		L43.324,43.011z M27.322,32.435l14.089,3.681l0.175,3.662c-0.486-0.3-1.095-0.629-1.776-0.886
		c-0.244-0.093-0.519,0.031-0.612,0.276c-0.092,0.246,0.031,0.52,0.276,0.612c0.881,0.333,1.642,0.805,2.124,1.14
		c0.014,0.01,0.029,0.013,0.043,0.021l1.271,26.606l-12.585-3.654L27.322,32.435z M69.407,67.588l-12.251-3.641l1.506-31.529
		l14.055,3.672L69.407,67.588z"/>
	<path fill="#1E1B1C" d="M66.082,42.076c0.916,0,1.659-0.745,1.659-1.659c0-0.915-0.745-1.66-1.659-1.66s-1.658,0.745-1.658,1.66
		C64.424,41.332,65.168,42.076,66.082,42.076z M66.082,39.707c0.392,0,0.711,0.319,0.711,0.71s-0.319,0.709-0.711,0.709
		c-0.391,0-0.709-0.318-0.709-0.709S65.691,39.707,66.082,39.707z"/>
	<path fill="#1E1B1C" d="M64.381,43.693l1.021,1.111c0.182,0.182,0.424,0.281,0.68,0.281c0.258,0,0.499-0.1,0.695-0.296l1.288-1.403
		c0.114-0.124,0.243-0.245,0.356-0.349c0.715-0.659,1.142-1.647,1.142-2.644c0-1.919-1.562-3.481-3.494-3.481
		c-1.839,0.007-3.394,1.507-3.464,3.344c-0.041,1.043,0.381,2.081,1.131,2.774C63.963,43.242,64.179,43.474,64.381,43.693z
		 M66.082,37.863c1.396,0,2.531,1.136,2.531,2.531c0,0.735-0.312,1.463-0.835,1.946c-0.126,0.116-0.272,0.253-0.411,0.404
		l-1.275,1.388c-0.002,0.002-0.002,0.016-0.005,0.015L65.08,43.05c-0.215-0.233-0.446-0.481-0.699-0.716
		c-0.549-0.508-0.857-1.271-0.828-2.042C63.605,38.958,64.735,37.868,66.082,37.863z"/>
	<path fill="#1E1B1C" d="M38.872,58.617c0-0.125-0.05-0.246-0.139-0.336l-1.759-1.758c-0.186-0.186-0.486-0.186-0.671,0l-1.331,1.33
		l-1.331-1.33c-0.185-0.186-0.486-0.186-0.671,0l-1.759,1.758c-0.089,0.09-0.14,0.211-0.14,0.336c0,0.127,0.051,0.246,0.14,0.336
		l1.331,1.33l-1.331,1.332c-0.089,0.088-0.14,0.209-0.14,0.336c0,0.125,0.051,0.246,0.14,0.336l1.759,1.758
		c0.178,0.18,0.493,0.178,0.671,0l1.331-1.33l1.331,1.33c0.093,0.094,0.214,0.141,0.335,0.141c0.122,0,0.243-0.047,0.336-0.141
		l1.759-1.758c0.185-0.186,0.185-0.486,0-0.672l-1.331-1.332l1.331-1.33C38.821,58.863,38.872,58.742,38.872,58.617z M36.395,59.947
		c-0.089,0.09-0.139,0.211-0.139,0.336s0.05,0.246,0.139,0.336l1.331,1.33l-1.088,1.088l-1.331-1.33
		c-0.089-0.09-0.209-0.139-0.335-0.139s-0.247,0.049-0.335,0.139l-1.331,1.33l-1.088-1.088l1.331-1.33
		c0.089-0.09,0.14-0.211,0.14-0.336s-0.051-0.246-0.14-0.336l-1.331-1.33l1.088-1.088l1.331,1.33c0.185,0.186,0.486,0.186,0.671,0
		l1.331-1.33l1.088,1.088L36.395,59.947z"/>
	<path fill="#1E1B1C" d="M32.961,41.583c0.08,0.052,0.17,0.077,0.259,0.077c0.155,0,0.307-0.076,0.398-0.215
		c0.131-0.203,0.278-0.391,0.436-0.562c0.382-0.414,0.797-0.748,1.232-0.993c0.229-0.128,0.311-0.417,0.183-0.646
		c-0.129-0.229-0.419-0.31-0.646-0.182c-0.523,0.293-1.017,0.689-1.467,1.176c-0.194,0.21-0.374,0.442-0.533,0.688
		C32.679,41.146,32.741,41.44,32.961,41.583z"/>
	<path fill="#1E1B1C" d="M54.401,44.338c0.065,0,0.131-0.014,0.194-0.042c0.238-0.107,0.346-0.388,0.238-0.627
		c-0.381-0.847-0.889-1.595-1.508-2.224c-0.184-0.187-0.484-0.188-0.671-0.004c-0.187,0.185-0.188,0.484-0.005,0.671
		c0.541,0.547,0.983,1.201,1.317,1.946C54.047,44.234,54.221,44.338,54.401,44.338z"/>
	<path fill="#1E1B1C" d="M48.707,40.409c0.258,0.016,0.487-0.182,0.504-0.443c0.018-0.262-0.182-0.488-0.443-0.504
		c-0.859-0.056-1.72,0.002-2.634,0.163c-0.258,0.045-0.431,0.292-0.385,0.55c0.041,0.23,0.241,0.393,0.467,0.393
		c0.027,0,0.055-0.002,0.083-0.007C47.138,40.412,47.923,40.357,48.707,40.409z"/>
	<path fill="#1E1B1C" d="M50.129,53.816c-0.716,0.75-1.25,1.379-1.68,1.984c-0.152,0.215-0.102,0.51,0.112,0.662
		c0.083,0.061,0.179,0.088,0.274,0.088c0.148,0,0.295-0.07,0.388-0.199c0.402-0.568,0.908-1.164,1.593-1.879
		c0.181-0.188,0.175-0.488-0.015-0.67S50.311,53.629,50.129,53.816z"/>
	<path fill="#1E1B1C" d="M49.236,62.283c-0.339-0.262-0.627-0.662-0.857-1.188c-0.101-0.23-0.181-0.463-0.237-0.693
		c-0.064-0.254-0.32-0.408-0.575-0.346c-0.255,0.064-0.41,0.32-0.347,0.574c0.07,0.281,0.167,0.566,0.289,0.844
		c0.295,0.674,0.681,1.199,1.147,1.559c0.086,0.066,0.188,0.1,0.29,0.1c0.142,0,0.282-0.064,0.376-0.186
		C49.482,62.74,49.444,62.443,49.236,62.283z"/>
	<path fill="#1E1B1C" d="M54.451,48.399c-0.042,0.188-0.094,0.374-0.154,0.555c-0.143,0.428-0.436,0.911-0.895,1.476
		c-0.166,0.204-0.135,0.502,0.068,0.668c0.088,0.072,0.194,0.105,0.299,0.105c0.139,0,0.275-0.059,0.369-0.174
		c0.533-0.656,0.879-1.236,1.059-1.775c0.07-0.211,0.131-0.429,0.18-0.647c0.059-0.255-0.104-0.509-0.359-0.567
		C54.762,47.983,54.508,48.143,54.451,48.399z"/>
	<path fill="#1E1B1C" d="M67.809,54.803c0.094,0.119,0.234,0.182,0.375,0.182c0.102,0,0.205-0.033,0.293-0.1
		c0.206-0.162,0.242-0.461,0.081-0.668c-0.32-0.408-0.729-0.773-1.214-1.084c-0.284-0.182-0.559-0.379-0.815-0.586
		c-0.204-0.162-0.502-0.131-0.667,0.074c-0.164,0.203-0.132,0.502,0.072,0.666c0.283,0.229,0.586,0.445,0.899,0.646
		C67.227,54.186,67.557,54.479,67.809,54.803z"/>
	<path fill="#1E1B1C" d="M68.561,58.564c-0.229-0.125-0.518-0.039-0.643,0.191c-0.377,0.693-0.916,1.297-1.521,1.699
		c-0.219,0.145-0.278,0.439-0.133,0.658c0.091,0.137,0.242,0.211,0.396,0.211c0.091,0,0.182-0.025,0.264-0.078
		c0.73-0.486,1.379-1.209,1.828-2.037C68.877,58.977,68.791,58.689,68.561,58.564z"/>
	<path fill="#1E1B1C" d="M59.471,60.941c0.895,0.254,1.733,0.461,2.494,0.617c0.033,0.008,0.064,0.01,0.096,0.01
		c0.221,0,0.418-0.154,0.465-0.377c0.054-0.258-0.111-0.508-0.369-0.561c-0.738-0.154-1.555-0.355-2.427-0.602
		c-0.252-0.072-0.515,0.074-0.586,0.326C59.071,60.609,59.219,60.871,59.471,60.941z"/>
	<path fill="#1E1B1C" d="M64.407,46.25c-0.207-0.16-0.505-0.122-0.666,0.085c-0.411,0.53-0.627,1.21-0.627,1.964
		c0,0.269,0.028,0.547,0.081,0.827c0.043,0.228,0.242,0.386,0.466,0.386c0.03,0,0.06-0.003,0.09-0.008
		c0.257-0.049,0.427-0.298,0.377-0.556c-0.042-0.222-0.063-0.44-0.063-0.649c0-0.543,0.148-1.021,0.428-1.384
		C64.652,46.708,64.615,46.41,64.407,46.25z"/>
	<path fill="#1E1B1C" d="M32.387,48.741c0.023,0,0.047-0.001,0.071-0.005c0.259-0.039,0.438-0.28,0.398-0.54
		c-0.132-0.873-0.204-1.7-0.214-2.458c-0.004-0.262-0.216-0.461-0.481-0.468c-0.262,0.004-0.472,0.219-0.468,0.481
		c0.011,0.8,0.087,1.671,0.225,2.586C31.954,48.573,32.156,48.741,32.387,48.741z"/>
	<path fill="#1E1B1C" d="M33.344,52.432c-0.25,0.078-0.389,0.346-0.31,0.596c0.455,1.443,0.849,2.391,0.865,2.43
		c0.077,0.182,0.253,0.291,0.439,0.291c0.061,0,0.123-0.012,0.183-0.037c0.242-0.1,0.356-0.379,0.255-0.621
		c-0.003-0.01-0.395-0.949-0.835-2.35C33.861,52.492,33.597,52.354,33.344,52.432z"/>
</g>
</svg>
