<?xml version="1.0" encoding="utf-8"?>
<!-- Generator: Adobe Illustrator 15.0.0, SVG Export Plug-In . SVG Version: 6.00 Build 0)  -->
<!DOCTYPE svg PUBLIC "-//W3C//DTD SVG 1.1//EN" "http://www.w3.org/Graphics/SVG/1.1/DTD/svg11.dtd">
<svg version="1.1" id="Your_Icon" xmlns="http://www.w3.org/2000/svg" xmlns:xlink="http://www.w3.org/1999/xlink" x="0px" y="0px"
	 width="100px" height="100px" viewBox="0 0 100 100" enable-background="new 0 0 100 100" xml:space="preserve">
<path d="M79.193,82.623c0,0-0.369-9.355-2.08-10.992c-1.709-1.633-3.572-4.328-12.639-5.668c-3.027-0.443-4.393-1.083-5.482-1.979
	c-0.016-0.013,0.016,0.016,0,0c-1.814-1.594-1.895-4.48-1.895-4.48l0,0l0.027-0.843c-4.959,1.519-12.047,0.839-14.274,0.44
	c0.017,1.029,0,0.941-0.13,1.554c0,0.009-0.004,0.02-0.005,0.032c-0.017,0.07-0.034,0.137-0.053,0.193
	c0.001,0.004,0.002,0.008,0.005,0.011c-0.477,2.177-1.243,2.952-1.243,2.952c-1.149,0.972-3.18,1.887-6.413,2.365
	c-9.068,1.336-10.861,3.789-12.57,5.422c-1.709,1.637-1.635,10.992-1.635,10.992h16.141c-0.377-0.371-0.612-0.885-0.612-1.455
	c0-1.127,0.913-2.041,2.04-2.041c1.128,0,2.041,0.914,2.041,2.041c0,0.57-0.235,1.084-0.612,1.455H58.67
	c-0.297-0.355-0.477-0.812-0.477-1.311c0-1.127,0.912-2.039,2.039-2.039s2.041,0.912,2.041,2.039c0,0.498-0.18,0.955-0.479,1.311
	H79.193z M37.647,74.611c-1.126,0-2.039-0.914-2.039-2.039c0-1.127,0.913-2.041,2.039-2.041c1.128,0,2.04,0.912,2.04,2.041
	C39.687,73.697,38.775,74.611,37.647,74.611z M60.525,74.465c-1.127,0-2.041-0.914-2.041-2.041s0.914-2.039,2.041-2.039
	s2.039,0.912,2.039,2.039S61.652,74.465,60.525,74.465z"/>
<path d="M62.713,38.816c0.033-0.701,0.059-1.37,0.074-1.973c0.014-1.41,0.041-16.207,0.041-16.207h-0.012
	c-0.275-1.812-5.959-3.259-12.932-3.259c-7.149,0-12.944,1.521-12.944,3.396c0,0.063,0.007,0.126,0.021,0.189
	c0,0-0.137,15.753-0.116,17.879c-1.069,0.435-1.831,1.91-1.831,3.597c0,1.955,1.218,3.604,2.516,3.73
	c0.219,1.061,0.423,1.75,0.484,1.909c1.373,3.91,4.206,5.431,4.867,5.885c1.336,0.918,4.233,1.89,7.101,1.89
	c0.102,0,0.201-0.002,0.301-0.005c2.998-0.071,5.465-0.334,6.916-1.442c0.301-0.23,2.885-2.461,4.254-6.375
	c0.197-0.578,0.361-1.233,0.504-1.921c1.252-0.138,2.482-1.626,2.631-3.496C64.727,40.855,63.83,39.259,62.713,38.816z
	 M58.412,19.927l-0.164,3.71c-0.348-0.125-0.723-0.195-1.115-0.195c-0.357,0-0.701,0.057-1.025,0.161l-0.059-4.314
	C56.049,19.291,57.893,19.412,58.412,19.927z M56.123,24.94c0.305-0.151,0.646-0.238,1.01-0.238c0.387,0,0.75,0.096,1.07,0.267
	c0.721,0.384,1.213,1.143,1.213,2.016c0,1.259-1.023,2.284-2.283,2.284c-1.258,0-2.283-1.024-2.283-2.284
	C54.85,26.089,55.371,25.314,56.123,24.94z M60.773,37.33c-0.051,2.086-0.229,5.144-0.564,7.42c-0.186,1.09-0.387,1.948-0.613,2.619
	c-1.217,3.475-3.559,5.388-3.582,5.406c-1.164,0.89-3.471,1.063-5.789,1.12c-0.086,0.002-0.17,0.002-0.254,0.002
	c-2.406,0-4.876-0.805-5.979-1.562c-0.063-0.043-0.143-0.096-0.238-0.157c-0.775-0.499-2.835-1.82-3.873-4.774
	c-0.001-0.006-0.004-0.013-0.005-0.019c-0.009-0.021-0.808-2.536-0.964-6.14c-0.121-2.761,0.052-7.227,0.169-9.672
	c2.316-0.92,6.29-1.526,10.804-1.526c4.533,0,8.518,0.612,10.83,1.537C60.76,33.167,60.791,35.71,60.773,37.33z"/>
<path d="M61.648,29.533c0.334-2.276,0.512-5.333,0.563-7.42L61.648,29.533z"/>
</svg>
