<?xml version="1.0" encoding="utf-8"?>
<!-- Generator: Adobe Illustrator 15.0.0, SVG Export Plug-In . SVG Version: 6.00 Build 0)  -->
<!DOCTYPE svg PUBLIC "-//W3C//DTD SVG 1.1//EN" "http://www.w3.org/Graphics/SVG/1.1/DTD/svg11.dtd">
<svg version="1.1" id="Layer_1" xmlns="http://www.w3.org/2000/svg" xmlns:xlink="http://www.w3.org/1999/xlink" x="0px" y="0px"
	 width="100px" height="100px" viewBox="0 0 100 100" enable-background="new 0 0 100 100" xml:space="preserve">
<g id="Your_Icon">
	<path d="M83.152,65.816c-2.49-0.437-3.885-5.056-3.951-5.28c-9.371,2.231-19.148,3.41-29.201,3.41
		c-10.052,0-19.829-1.179-29.201-3.41c-0.065,0.225-1.461,4.844-3.951,5.28c0,0-2.905,0.764-2.905,3.064v3.191
		C25.365,75.482,37.468,77.32,50,77.32c12.531,0,24.635-1.837,36.056-5.248v-3.191C86.056,66.58,83.152,65.816,83.152,65.816z"/>
	<g>
		<path d="M77.826,51.825c-2.383-0.853-1.871-4.425-1.871-4.425c0-15.719-19.898-17.024-24.851-17.104v-3.411
			c2.133-0.147,3.772-0.713,4.042-1.417h0.044V24.34c0-0.916-2.323-1.66-5.19-1.66c-2.869,0-5.189,0.745-5.189,1.66v0.987h0.009
			c0.087,0.766,1.802,1.401,4.075,1.558v3.411c-4.952,0.081-24.847,1.386-24.847,17.104c0,0,0.512,3.573-1.871,4.425
			c0,0-1.527,2.276-1.359,4.838c9.365,2.228,19.136,3.41,29.184,3.41c10.049,0,19.82-1.183,29.185-3.41
			C79.353,54.102,77.826,51.825,77.826,51.825z M70.877,50.504c-0.618,0-1.119-0.5-1.119-1.118c0-4.488-1.884-7.889-5.602-10.109
			c-2.833-1.693-5.672-2.04-5.701-2.043c-0.613-0.072-1.051-0.625-0.98-1.239c0.072-0.613,0.629-1.049,1.24-0.98
			c0.133,0.015,13.281,1.688,13.281,14.372C71.992,50.003,71.496,50.504,70.877,50.504z"/>
	</g>
</g>
</svg>
